<svg width="32" height="32" viewBox="0 0 64 64" fill="none" xmlns="http://www.w3.org/2000/svg"><circle cx="32" cy="32" r="32" fill="#C84152"/><path d="M20.125 21c-.943 0-1.808.319-2.499.84l14.205 13.18c.318.295 1.02.295 1.338 0l14.207-13.18a4.145 4.145 0 00-2.501-.84h-24.75zm-3.583 2.062A4.05 4.05 0 0016 25.075v13.852c0 .831.255 1.598.684 2.24l.037-.023 10.381-8.277-10.562-9.805h.002zm31.916 0L37.9 32.867l10.379 8.275.037.025a4.027 4.027 0 00.684-2.24V25.075c0-.734-.203-1.42-.542-2.013zM28.31 33.987l-10.456 8.339a4.16 4.16 0 002.27.674h24.75c.84 0 1.62-.252 2.268-.674l-10.454-8.34-2.383 2.217a2.66 2.66 0 01-1.806.703 2.66 2.66 0 01-1.806-.703l-2.383-2.216z" fill="#fff"/></svg>