<svg width="32" height="32" viewBox="0 0 64 64" fill="none" xmlns="http://www.w3.org/2000/svg"><circle cx="32" cy="32" r="32" fill="#E74252"/><g clip-path="url(#clip0)"><path d="M34.85 39.32l-5.568 5.569a7.228 7.228 0 01-10.19.02l-.02-.02a7.227 7.227 0 01.04-10.17l6.137-6.138a7.229 7.229 0 0110.17-.038l.02.018.02.02c.337.343.632.71.887 1.097l-1.667 1.667c-.475.475-1.2.553-1.757.234a3.327 3.327 0 00-.237-.268 3.332 3.332 0 00-4.686.022L21.86 37.47a3.332 3.332 0 00-.018 4.688 3.332 3.332 0 004.687-.02l3.489-3.488c1.52.657 3.19.889 4.832.67h-.001zm10.039-20.249a7.227 7.227 0 00-10.172.04l-5.567 5.57a9.14 9.14 0 014.833.67l3.487-3.488a3.333 3.333 0 014.688-.02 3.332 3.332 0 01-.02 4.687l-6.137 6.138a3.333 3.333 0 01-4.685.022 3.422 3.422 0 01-.237-.267 1.46 1.46 0 00-1.756.232l-1.668 1.668c.255.387.551.755.887 1.096l.02.02.02.02a7.228 7.228 0 0010.172-.04l6.137-6.138a7.23 7.23 0 00.038-10.17l-.019-.02-.02-.02h-.001z" fill="#fff"/></g><defs><clipPath id="clip0"><path fill="#fff" transform="translate(17 17)" d="M0 0h30v30H0z"/></clipPath></defs></svg>