<svg width="32" height="32" viewBox="0 0 64 64" fill="none" xmlns="http://www.w3.org/2000/svg"><circle cx="32" cy="32" r="32" fill="#E74252"/><path fill-rule="evenodd" clip-rule="evenodd" d="M32.01 17a15.003 15.003 0 00-5.467 28.977c-.13-1.185-.248-3.01.052-4.308.272-1.17 1.76-7.458 1.76-7.458s-.45-.896-.45-2.225c0-2.088 1.21-3.644 2.715-3.644 1.281 0 1.899.96 1.899 2.114 0 1.286-.82 3.21-1.243 4.994-.354 1.493.75 2.71 2.222 2.71 2.666 0 4.715-2.811 4.715-6.868 0-3.593-2.58-6.105-6.267-6.105-4.267 0-6.772 3.203-6.772 6.512 0 1.288.495 2.672 1.114 3.423a.45.45 0 01.107.43l-.418 1.702c-.064.275-.218.332-.501.2-1.876-.873-3.046-3.612-3.046-5.811 0-4.735 3.438-9.079 9.913-9.079 5.204 0 9.248 3.708 9.248 8.663 0 5.172-3.258 9.334-7.784 9.334-1.522 0-2.95-.79-3.44-1.723l-.935 3.567c-.338 1.303-1.251 2.936-1.864 3.932A15.002 15.002 0 1032.01 17" fill="#fff"/></svg>