<svg width="32" height="32" viewBox="0 0 64 64" fill="none" xmlns="http://www.w3.org/2000/svg"><circle cx="32" cy="32" r="32" fill="#C84152"/><path d="M26.435 44.914c11.32 0 17.511-9.586 17.511-17.9 0-.272 0-.543-.017-.813 1.21-.897 2.25-2 3.071-3.258-1.12.508-2.313.842-3.536.99a6.284 6.284 0 002.707-3.48 12.172 12.172 0 01-3.909 1.527 6.069 6.069 0 00-7.39-1.237c-2.463 1.341-3.73 4.204-3.101 6.976-4.948-.255-9.557-2.643-12.684-6.574-1.633 2.875-.8 6.553 1.907 8.4a6.007 6.007 0 01-2.794-.789v.081c0 2.995 2.066 5.574 4.937 6.168a6.013 6.013 0 01-2.78.106c.809 2.564 3.119 4.32 5.752 4.37a12.16 12.16 0 01-4.287 2.225A12.204 12.204 0 0117 42.09a17.15 17.15 0 009.435 2.822" fill="#fff"/></svg>