<svg width="32" height="32" viewBox="0 0 64 64" fill="none" xmlns="http://www.w3.org/2000/svg"><circle cx="32" cy="32" r="32" fill="#E74252"/><path fill-rule="evenodd" clip-rule="evenodd" d="M38.873 34.977c-.373-.186-2.208-1.083-2.55-1.208-.343-.124-.592-.185-.84.187-.25.371-.964 1.208-1.182 1.455-.217.248-.436.279-.809.094-.373-.188-1.574-.579-3-1.844-1.11-.985-1.86-2.201-2.077-2.574-.219-.37-.024-.572.163-.757.168-.166.375-.434.56-.65.187-.218.25-.372.373-.621.125-.248.063-.464-.031-.65s-.84-2.015-1.15-2.759c-.304-.724-.611-.625-.84-.637a16.21 16.21 0 00-.716-.013 1.374 1.374 0 00-.995.465c-.341.371-1.306 1.27-1.306 3.099 0 1.827 1.337 3.593 1.524 3.842.187.248 2.632 4 6.376 5.609.89.383 1.586.611 2.127.782.895.283 1.708.243 2.35.147.719-.107 2.209-.899 2.52-1.767.313-.867.313-1.61.218-1.766-.093-.155-.342-.247-.715-.434zm-6.81 9.254h-.006c-2.222 0-4.404-.594-6.318-1.722l-.454-.268-4.699 1.228 1.254-4.56-.295-.468a12.282 12.282 0 01-1.898-6.575c.003-6.812 5.573-12.355 12.42-12.355a12.361 12.361 0 018.778 3.623 12.253 12.253 0 013.633 8.742c-.003 6.813-5.572 12.355-12.416 12.355zm10.566-22.87A14.875 14.875 0 0032.063 17c-8.234 0-14.934 6.668-14.938 14.864 0 2.62.688 5.177 1.994 7.431L17 47l7.919-2.068a14.98 14.98 0 007.137 1.81h.007c8.232 0 14.933-6.668 14.937-14.866a14.74 14.74 0 00-4.371-10.516" fill="#fff"/></svg>