<?xml version="1.0" standalone="no"?>
<!DOCTYPE svg PUBLIC "-//W3C//DTD SVG 1.1//EN" "http://www.w3.org/Graphics/SVG/1.1/DTD/svg11.dtd" >
<svg xmlns="http://www.w3.org/2000/svg">
<metadata>Generated by IcoMoon</metadata>
<defs>
<font id="icomoon" horiz-adv-x="1024">
<font-face units-per-em="1024" ascent="960" descent="-64" />
<missing-glyph horiz-adv-x="1024" />
<glyph unicode="&#x20;" horiz-adv-x="512" d="" />
<glyph unicode="&#xe900;" glyph-name="afn-add" d="M591.208 60c8.912 0 16.042 7.13 16.042 16.042v272.708h272.708c8.912 0 16.042 7.13 16.042 16.042v160.417c0 8.912-7.13 16.042-16.042 16.042h-272.708v272.708c0 8.912-7.13 16.042-16.042 16.042h-160.417c-8.912 0-16.042-7.13-16.042-16.042v-272.708h-272.708c-8.912 0-16.042-7.13-16.042-16.042v-160.417c0-8.912 7.13-16.042 16.042-16.042h272.708v-272.708c0-8.912 7.13-16.042 16.042-16.042h160.417z" />
<glyph unicode="&#xe901;" glyph-name="afn-calendar" d="M848.125 830h-63.833v-95.75c0-26.597-21.278-47.875-47.875-47.875s-47.875 21.278-47.875 47.875v95.75h-351.083v-95.75c0-26.597-21.278-47.875-47.875-47.875s-47.875 21.278-47.875 47.875v95.75h-63.833c-26.597 0-47.875-21.278-47.875-47.875v-670.25c0-26.597 21.278-47.875 47.875-47.875h670.25c26.597 0 47.875 21.278 47.875 47.875v670.25c0 26.597-21.278 47.875-47.875 47.875v0zM369.375 175.708h-127.667v127.667h127.667v-127.667zM369.375 399.125h-127.667v127.667h127.667v-127.667zM576.833 175.708h-127.667v127.667h127.667v-127.667zM576.833 399.125h-127.667v127.667h127.667v-127.667zM784.292 175.708h-127.667v127.667h127.667v-127.667zM784.292 399.125h-127.667v127.667h127.667v-127.667z" />
<glyph unicode="&#xe902;" glyph-name="afn-check" d="M893.324 611.939c6.235 6.235 6.235 16.923 0 23.158l-112.227 112.227c-6.235 6.235-16.923 6.235-23.158 0l-341.134-342.024-148.745 149.636c-6.235 6.235-16.923 6.235-23.158 0l-112.227-112.227c-6.235-6.235-6.235-16.923 0-23.158l272.551-272.551c3.563-2.672 7.126-4.453 11.579-4.453s8.016 1.781 11.579 4.453l464.939 464.939z" />
<glyph unicode="&#xe903;" glyph-name="afn-close" d="M889.216 221.862l-223.998 223.998 223.998 223.998c3.041 4.054 5.068 8.109 5.068 13.176s-2.027 9.122-5.068 13.176l-128.723 128.723c-4.054 3.041-8.109 5.068-13.176 5.068s-9.122-2.027-13.176-5.068l-223.998-223.998-223.998 223.998c-4.054 3.041-8.109 5.068-13.176 5.068s-9.122-2.027-13.176-5.068l-128.723-128.723c-3.041-4.054-5.068-8.109-5.068-13.176s2.027-9.122 5.068-13.176l223.998-223.998-223.998-223.998c-3.041-4.054-5.068-8.109-5.068-13.176s2.027-9.122 5.068-13.176l128.723-128.723c4.054-3.041 8.109-5.068 13.176-5.068s9.122 2.027 13.176 5.068l223.998 223.998 223.998-223.998c4.054-3.041 8.109-5.068 13.176-5.068s9.122 2.027 13.176 5.068l128.723 128.723c3.041 4.054 5.068 8.109 5.068 13.176s-2.027 9.122-5.068 13.176v0z" />
<glyph unicode="&#xe904;" glyph-name="afn-comment" d="M898 495.133c0 172.923-172.002 312.867-385 312.867s-385-139.943-385-312.867c0-104.289 62.384-196.099 158.634-253.146-10.694-80.222-57.037-127.464-57.928-128.356-4.456-4.457-5.347-11.588-3.565-17.827 2.674-6.24 8.912-9.805 15.15-9.805 92.685 0 167.546 60.612 207.65 100.723 20.498-2.674 42.778-4.457 65.058-4.457 212.998 0 385 139.943 385 312.867v0z" />
<glyph unicode="&#xe905;" glyph-name="afn-down" d="M876.090 416.301c4.468 4.468 5.361 11.616 3.574 17.87-2.681 6.255-8.935 9.829-15.19 9.829h-209.083v369.917c0 8.935-7.148 16.083-16.083 16.083h-257.333c-8.935 0-16.083-7.148-16.083-16.083v-369.917h-209.083c-6.255 0-12.509-3.574-15.19-9.829-1.787-6.255-0.894-13.403 3.574-17.87l353.833-353.833c3.574-2.681 7.148-4.468 11.616-4.468s8.042 1.787 11.616 4.468l353.833 353.833z" />
<glyph unicode="&#xe906;" glyph-name="afn-expand" d="M535.28 333.817c3.565 2.674 5.347 7.13 5.347 10.694 0 4.456-1.782 8.912-5.347 11.586l-113.183 113.183c-6.238 6.238-16.042 6.238-22.28 0l-136.354-135.463-107.836 108.727c-4.456 4.456-11.586 5.347-17.824 3.565-6.238-2.674-9.803-8.912-9.803-15.15v-352.917c0-8.912 7.13-16.042 16.042-16.042h352.917c8.912 0 16.042 7.13 16.042 16.042 0 4.456-1.782 8.912-5.347 11.586l-107.836 107.836 135.463 136.354zM898 815.958c0 8.912-7.13 16.042-16.042 16.042h-352.917c-6.238 0-12.477-3.565-15.15-9.803-1.782-6.238-0.891-13.368 3.565-17.824l108.727-107.836-136.354-136.354c-6.238-6.238-6.238-16.042 0-22.28l114.074-114.074c2.674-2.674 7.13-4.456 11.586-4.456 3.565 0 8.021 1.782 10.694 4.456l136.354 136.354 107.836-108.727c3.565-2.674 7.13-4.456 11.586-4.456 1.782 0 4.456 0 6.238 0.891 6.238 2.674 9.803 8.912 9.803 15.15v352.917z" />
<glyph unicode="&#xe907;" glyph-name="afn-facebook" d="M416 64h144v352.125h134.25l9.75 127.875h-144v96c0 37.5 7.125 64.125 55.875 64.125h82.875l5.25 120.75c0 0-41.625 7.125-96 7.125-135 0-192-85.5-192-175.875v-112.125h-96v-127.875h96v-352.125z" />
<glyph unicode="&#xe908;" glyph-name="afn-flag" d="M800 773.333c0 5.333-2.667 10.667-7.111 13.333-4.444 3.556-10.667 3.556-15.111 1.778-21.333-9.778-55.111-20.444-97.778-20.444-52.444 0-111.111 16-168 32s-116.444 32-168 32c-55.111 0-96-18.667-112-27.556-4.444-2.667-8-8-8-13.333v-711.111c0-8.889 7.111-16 16-16h64c8.889 0 16 7.111 16 16v367.111c8 0 16 0.889 24 0.889 51.556 0 111.111-16 168-32s115.556-32 168-32c54.222 0 96 18.667 111.111 26.667 5.333 3.556 8.889 8.889 8.889 14.222v348.444z" />
<glyph unicode="&#xe909;" glyph-name="afn-folder" d="M128 208c0-26.667 21.333-48 48-48h672c26.667 0 48 21.333 48 48v384c0 26.667-21.333 48-48 48h-336l-24 70.222c-4.444 14.222-20.444 25.778-34.667 25.778h-277.333c-26.667 0-48-21.333-48-48v-480z" />
<glyph unicode="&#xe90a;" glyph-name="afn-google-plus" d="M371.557 483.523v-84.191h139.266c-5.613-36.132-42.095-105.94-139.266-105.94-83.84 0-152.245 69.457-152.245 155.051s68.405 155.051 152.245 155.051c47.708 0 79.631-20.346 97.872-37.886l66.651 64.196c-42.797 39.991-98.223 64.196-164.523 64.196-135.758 0-245.557-109.799-245.557-245.557s109.799-245.557 245.557-245.557c141.721 0 235.734 99.626 235.734 239.944 0 16.137-1.754 28.414-3.859 40.692h-231.876zM896.477 481.841h-70.159v70.159h-70.159v-70.159h-70.159v-70.159h70.159v-70.159h70.159v70.159h70.159z" />
<glyph unicode="&#xe90b;" glyph-name="afn-grid-view" d="M132 814.083v-159.167c0-8.843 7.074-15.917 15.917-15.917h159.167c8.843 0 15.917 7.074 15.917 15.917v159.167c0 8.843-7.074 15.917-15.917 15.917h-159.167c-8.843 0-15.917-7.074-15.917-15.917v0zM418.5 814.083v-159.167c0-8.843 7.074-15.917 15.917-15.917h159.167c8.843 0 15.917 7.074 15.917 15.917v159.167c0 8.843-7.074 15.917-15.917 15.917h-159.167c-8.843 0-15.917-7.074-15.917-15.917v0zM705 814.083v-159.167c0-8.843 7.074-15.917 15.917-15.917h159.167c8.843 0 15.917 7.074 15.917 15.917v159.167c0 8.843-7.074 15.917-15.917 15.917h-159.167c-8.843 0-15.917-7.074-15.917-15.917v0zM132 527.583v-159.167c0-8.843 7.074-15.917 15.917-15.917h159.167c8.843 0 15.917 7.074 15.917 15.917v159.167c0 8.843-7.074 15.917-15.917 15.917h-159.167c-8.843 0-15.917-7.074-15.917-15.917v0zM418.5 527.583v-159.167c0-8.843 7.074-15.917 15.917-15.917h159.167c8.843 0 15.917 7.074 15.917 15.917v159.167c0 8.843-7.074 15.917-15.917 15.917h-159.167c-8.843 0-15.917-7.074-15.917-15.917v0zM705 527.583v-159.167c0-8.843 7.074-15.917 15.917-15.917h159.167c8.843 0 15.917 7.074 15.917 15.917v159.167c0 8.843-7.074 15.917-15.917 15.917h-159.167c-8.843 0-15.917-7.074-15.917-15.917v0zM132 241.083v-159.167c0-8.843 7.074-15.917 15.917-15.917h159.167c8.843 0 15.917 7.074 15.917 15.917v159.167c0 8.843-7.074 15.917-15.917 15.917h-159.167c-8.843 0-15.917-7.074-15.917-15.917v0zM418.5 241.083v-159.167c0-8.843 7.074-15.917 15.917-15.917h159.167c8.843 0 15.917 7.074 15.917 15.917v159.167c0 8.843-7.074 15.917-15.917 15.917h-159.167c-8.843 0-15.917-7.074-15.917-15.917v0zM705 241.083v-159.167c0-8.843 7.074-15.917 15.917-15.917h159.167c8.843 0 15.917 7.074 15.917 15.917v159.167c0 8.843-7.074 15.917-15.917 15.917h-159.167c-8.843 0-15.917-7.074-15.917-15.917v0z" />
<glyph unicode="&#xe90c;" glyph-name="afn-grocerylist-add" d="M766.435 276.5v134h-100.174v-134h-133.565v-100.5h133.565v-134h100.174v134h133.565v100.5h-133.565zM599.478 678.5h-300.522v-67h300.522v67zM599.478 544.5h-300.522v-67h300.522v67zM232.174 745.5h434.087v-301.5h100.174v335c0 37.018-29.885 67-66.783 67h-500.87c-36.897 0-66.783-29.982-66.783-67v-536c0-36.984 29.885-67 66.783-67h300.522v100.5h-267.13v469zM298.957 343.5h300.522v67h-300.522v-67z" />
<glyph unicode="&#xe90d;" glyph-name="afn-grocerylist-delete" d="M902.359 337.944l-75.805 75.805-101.084-101.052-101.052 101.052-75.805-75.805 101.052-101.052-101.052-101.084 75.805-75.805 101.052 101.052 101.084-101.052 75.805 75.805-101.052 101.084 101.052 101.052zM581.11 669.972h-288.72v-64.16h288.72v64.16zM228.23 285.012v449.12h417.040v-288.72l96.24-60.15v380.95c0 35.416-28.712 64.16-64.16 64.16h-481.2c-35.416 0-64.16-28.744-64.16-64.16v-513.28c0-35.448 28.744-64.16 64.16-64.16h320.8l48.12 96.24h-336.84zM292.39 349.172h192.48l64.16 64.16h-256.64v-64.16zM581.11 541.652h-288.72v-64.16h288.72v64.16z" />
<glyph unicode="&#xe90e;" glyph-name="afn-grocerylist" d="M666 346h-306v-68h306v68zM734 210h-442v476h442v-476zM768 788h-510c-37.553 0-68-30.447-68-68v-544c0-37.553 30.447-68 68-68h510c37.553 0 68 30.447 68 68v544c0 37.553-30.447 68-68 68v0zM666 482h-306v-68h306v68zM666 618h-306v-68h306v68z" />
<glyph unicode="&#xe90f;" glyph-name="afn-half-star" d="M511.969 204.069v629.931c-6.255 0-12.509-4.468-15.19-10.722l-108.116-278.778h-246.611c-6.255 0-12.509-3.574-15.19-9.829-1.787-6.255-0.894-13.403 3.574-17.87l187.639-186.745-47.356-249.292c-0.894-6.255 1.787-12.509 7.148-16.083s12.509-3.574 17.87 0l216.231 139.389z" />
<glyph unicode="&#xe910;" glyph-name="afn-layers" d="M705.5 689.857c0 26.746-21.389 48.143-48.125 48.143h-481.25c-26.736 0-48.125-21.397-48.125-48.143v-337c0-26.746 21.389-48.143 48.125-48.143h80.208v208.619c0 53.492 42.778 96.286 96.25 96.286h352.917v80.238zM898 497.286c0 26.746-21.389 48.143-48.125 48.143h-497.292c-17.824 0-32.083-14.265-32.083-32.095v-304.905c0-26.746 21.389-48.143 48.125-48.143h481.25c26.736 0 48.125 21.397 48.125 48.143v288.857z" />
<glyph unicode="&#xe911;" glyph-name="afn-left" d="M484.867 62.051c4.637-4.637 12.056-5.564 18.548-3.71 6.492 2.782 10.201 9.274 10.201 15.766v217.013h383.946c9.274 0 16.693 7.419 16.693 16.693v267.093c0 9.274-7.419 16.693-16.693 16.693h-383.946v217.013c0 6.492-3.71 12.984-10.201 15.766-6.492 1.855-13.911 0.927-18.548-3.71l-367.253-367.253c-2.782-3.71-4.637-7.419-4.637-12.056s1.855-8.347 4.637-12.056l367.253-367.253z" />
<glyph unicode="&#xe912;" glyph-name="afn-like" d="M256.333 78.042v449.167c0 8.912-7.13 16.042-16.042 16.042h-96.25c-8.912 0-16.042-7.13-16.042-16.042v-449.167c0-8.912 7.13-16.042 16.042-16.042h96.25c8.912 0 16.042 7.13 16.042 16.042v0zM898 342.729c0 27.627-16.042 51.69-39.213 64.167 23.171 11.586 39.213 36.539 39.213 64.167 0 40.104-32.083 72.188-72.188 72.188h-168.438c-5.347 0-10.694 2.674-13.368 7.13s-3.565 9.803-1.782 15.15c0.891 0 31.192 77.535 31.192 138.137 0 34.757-9.803 67.731-27.627 92.685-15.15 22.28-34.757 35.648-52.581 35.648-26.736 0-48.125-21.389-48.125-48.125 0-96.25-32.083-160.417-224.583-288.75v-336.875l164.873-76.644c24.063-10.694 65.058-19.606 91.794-19.606h168.438c40.104 0 72.188 32.083 72.188 72.188 0 9.803-1.782 19.606-6.238 28.519 32.083 10.694 54.363 40.995 54.363 75.752 0 14.259-3.565 26.736-9.803 38.322 24.954 11.586 41.887 36.539 41.887 65.949v0z" />
<glyph unicode="&#xe913;" glyph-name="afn-list-view" d="M223.333 195.778c0 10.099-8.074 18.178-18.167 18.178h-109c-10.093 0-18.167-8.079-18.167-18.178v-109.067c0-10.099 8.074-18.178 18.167-18.178h109c10.093 0 18.167 8.079 18.167 18.178v109.067zM223.333 504.8c0 10.099-8.074 18.178-18.167 18.178h-109c-10.093 0-18.167-8.079-18.167-18.178v-109.067c0-10.099 8.074-18.178 18.167-18.178h109c10.093 0 18.167 8.079 18.167 18.178v109.067zM223.333 813.822c0 10.099-8.074 18.178-18.167 18.178h-109c-10.093 0-18.167-8.079-18.167-18.178v-109.067c0-10.099 8.074-18.178 18.167-18.178h109c10.093 0 18.167 8.079 18.167 18.178v109.067zM950 195.778c0 10.099-8.074 18.178-18.167 18.178h-617.667c-10.093 0-18.167-8.079-18.167-18.178v-109.067c0-10.099 8.074-18.178 18.167-18.178h617.667c10.093 0 18.167 8.079 18.167 18.178v109.067zM950 504.8c0 10.099-8.074 18.178-18.167 18.178h-617.667c-10.093 0-18.167-8.079-18.167-18.178v-109.067c0-10.099 8.074-18.178 18.167-18.178h617.667c10.093 0 18.167 8.079 18.167 18.178v109.067zM950 813.822c0 10.099-8.074 18.178-18.167 18.178h-617.667c-10.093 0-18.167-8.079-18.167-18.178v-109.067c0-10.099 8.074-18.178 18.167-18.178h617.667c10.093 0 18.167 8.079 18.167 18.178v109.067z" />
<glyph unicode="&#xe914;" glyph-name="afn-load" d="M577.167 767.833c0 35.648-28.519 64.167-64.167 64.167s-64.167-28.519-64.167-64.167v-112.292c0-35.648 28.519-64.167 64.167-64.167s64.167 28.519 64.167 64.167v112.292zM577.167 238.458c0 35.648-28.519 64.167-64.167 64.167s-64.167-28.519-64.167-64.167v-112.292c0-35.648 28.519-64.167 64.167-64.167s64.167 28.519 64.167 64.167v112.292zM368.625 447c0 35.648-28.519 64.167-64.167 64.167h-112.292c-35.648 0-64.167-28.519-64.167-64.167s28.519-64.167 64.167-64.167h112.292c35.648 0 64.167 28.519 64.167 64.167v0zM898 447c0 35.648-28.519 64.167-64.167 64.167h-112.292c-35.648 0-64.167-28.519-64.167-64.167s28.519-64.167 64.167-64.167h112.292c35.648 0 64.167 28.519 64.167 64.167v0zM410.512 549.488c25.845 24.954 25.845 65.058 0 90.012l-79.317 79.317c-24.954 25.845-65.058 25.845-90.903 0-24.954-24.954-24.954-65.058 0-90.012l80.208-79.317c24.954-25.845 65.058-25.845 90.012 0v0zM784.817 174.292c25.845 25.845 25.845 65.949 0 90.903l-79.317 79.317c-24.954 25.845-65.058 25.845-90.012 0-25.845-24.954-25.845-65.058 0-90.012l79.317-80.208c24.954-24.954 65.058-24.954 90.012 0v0zM784.817 628.806c25.845 24.954 25.845 65.058 0 90.012-24.954 25.845-65.058 25.845-90.012 0l-79.317-79.317c-25.845-24.954-25.845-65.058 0-90.012 24.954-25.845 65.058-25.845 90.012 0l79.317 79.317zM410.512 254.5c25.845 24.954 25.845 65.058 0 90.012-24.954 25.845-65.058 25.845-90.012 0l-80.208-79.317c-24.954-24.954-24.954-65.058 0-90.903 25.845-24.954 65.949-24.954 90.903 0l79.317 80.208z" />
<glyph unicode="&#xe915;" glyph-name="afn-mail" d="M898 683.857c0 26.704-21.431 48.143-48.125 48.143h-673.75c-26.694 0-48.125-21.439-48.125-48.143l385-288.857 385 288.857zM128 597.35v-394.922c0-26.704 21.431-48.143 48.125-48.143h673.75c26.694 0 48.125 21.439 48.125 48.143v394.922l-385-288.857-385 288.857z" />
<glyph unicode="&#xe916;" glyph-name="afn-navigate-down" d="M896 576.076c0 4.443-1.777 7.998-4.443 11.552l-111.968 111.968c-6.22 6.22-16.884 6.22-23.104 0l-244.374-245.262-244.374 245.262c-6.22 6.22-16.884 6.22-23.104 0l-111.968-111.968c-6.22-6.22-6.22-16.884 0-23.104l367.894-367.894c6.22-6.22 16.884-6.22 23.104 0l367.894 367.894c2.666 3.555 4.443 7.109 4.443 11.552v0z" />
<glyph unicode="&#xe917;" glyph-name="afn-navigate-left" d="M639.492 63.238c4.459 0 8.026 1.784 11.594 4.459l112.37 112.37c6.243 6.243 6.243 16.945 0 23.188l-246.144 245.252 246.144 245.252c6.243 6.243 6.243 16.945 0 23.188l-112.37 112.37c-6.243 6.243-16.945 6.243-23.188 0l-369.216-369.216c-6.243-6.243-6.243-16.945 0-23.188l369.216-369.216c3.567-2.675 7.135-4.459 11.594-4.459v0z" />
<glyph unicode="&#xe918;" glyph-name="afn-navigate-right" d="M384.59 834c-4.455 0-8.019-1.782-11.582-4.455l-112.259-112.259c-6.237-6.237-6.237-16.928 0-23.165l245.901-245.010-245.901-245.010c-6.237-6.237-6.237-16.928 0-23.165l112.259-112.259c6.237-6.237 16.928-6.237 23.165 0l368.852 368.852c6.237 6.237 6.237 16.928 0 23.165l-368.852 368.852c-3.564 2.673-7.128 4.455-11.582 4.455v0z" />
<glyph unicode="&#xe919;" glyph-name="afn-navigate-up" d="M128 320.491c0-4.436 1.774-7.985 4.436-11.534l111.792-111.792c6.211-6.211 16.858-6.211 23.068 0l243.991 244.878 243.991-244.878c6.211-6.211 16.858-6.211 23.068 0l111.792 111.792c6.211 6.211 6.211 16.858 0 23.068l-367.317 367.317c-6.211 6.211-16.858 6.211-23.068 0l-367.317-367.317c-2.662-3.549-4.436-7.098-4.436-11.534v0z" />
<glyph unicode="&#xe91a;" glyph-name="afn-pinterest" d="M529.087 832c-209.933 0-315.087-150.596-315.087-276.030 0-75.486 28.542-143.085 90.132-168.998 10.515-3.756 19.529 0 22.157 11.642 1.878 7.135 7.135 26.664 9.013 35.302 2.629 10.891 1.502 14.271-6.384 24.035-17.651 21.406-29.293 48.070-29.293 87.503 0 111.163 83.748 211.059 218.195 211.059 118.298 0 183.269-72.106 183.269-169.373 0-127.312-55.957-235.095-139.705-235.095-46.568 0-81.119 38.306-70.604 85.626 13.52 55.957 39.433 116.421 39.433 156.605 0 36.428-19.529 66.097-59.713 66.097-47.319 0-84.499-48.070-84.499-114.167 0-41.686 13.144-70.228 13.144-70.228s-48.070-204.675-55.957-240.352c-16.9-71.355-2.629-159.233-1.878-168.247 1.127-4.507 7.135-6.384 10.891-1.878 4.507 5.258 60.464 74.735 79.241 144.211 6.009 19.529 31.171 120.927 31.171 120.927 15.773-29.293 60.464-54.079 108.534-54.079 141.583 0 237.724 129.189 237.724 302.694 0 130.692-110.412 252.746-279.785 252.746v0z" />
<glyph unicode="&#xe91b;" glyph-name="afn-play" d="M145.956 63.99c2.659 0 4.432 0.886 7.092 1.773l733.975 366.988c5.319 2.659 8.864 7.978 8.864 14.183s-3.546 11.524-8.864 14.183l-733.975 366.988c-5.319 2.659-10.637 2.659-15.956-0.886-4.432-2.659-7.092-7.978-7.092-13.297v-733.975c0-5.319 2.659-10.637 7.092-13.297 2.659-1.773 6.205-2.659 8.864-2.659v0z" />
<glyph unicode="&#xe91c;" glyph-name="afn-print" d="M848.125 830c26.597 0 47.875-21.278 47.875-47.875v-383c0-26.597-21.278-47.875-47.875-47.875h-79.792v159.583h-510.667v-159.583h-79.792c-26.597 0-47.875 21.278-47.875 47.875v383c0 26.597 21.278 47.875 47.875 47.875h670.25zM752.375 638.5c26.597 0 47.875 21.278 47.875 47.875s-21.278 47.875-47.875 47.875c-26.597 0-47.875-21.278-47.875-47.875s21.278-47.875 47.875-47.875v0zM321.5 447h383v-367.042c0-8.866-7.093-15.958-15.958-15.958h-351.083c-8.866 0-15.958 7.093-15.958 15.958v367.042z" />
<glyph unicode="&#xe91d;" glyph-name="afn-recipebox-add" d="M637.165 496h113.408l14.656 79.584c3.392 26.144-15.264 48.416-41.536 48.416h-553.76c-26.272 0-44.992-22.016-41.504-48.128l37.408-285.92c3.424-26.208 27.776-49.952 54.048-49.952h289.28v128h128v128zM765.165 336v128h-95.168v-128h-127.488v-96h127.488v-128h95.168v128h128v96h-128zM210.061 656h523.104v64h-304.064c-13.376 0-27.776 9.088-32.064 20.224l-8.896 23.552c-4.224 11.136-18.688 20.224-32.032 20.224h-146.048c-13.408 0-18.304-9.6-18.304-21.312v-85.344c0 16.352 4.896-21.344 18.304-21.344v0z" />
<glyph unicode="&#xe91e;" glyph-name="afn-recipebox-grid" d="M448.833 495.125c8.912 0 16.042 7.13 16.042 16.042v304.792c0 8.912-7.13 16.042-16.042 16.042h-304.792c-8.912 0-16.042-7.13-16.042-16.042v-304.792c0-8.912 7.13-16.042 16.042-16.042h304.792zM881.958 495.125c8.912 0 16.042 7.13 16.042 16.042v304.792c0 8.912-7.13 16.042-16.042 16.042h-304.792c-8.912 0-16.042-7.13-16.042-16.042v-304.792c0-8.912 7.13-16.042 16.042-16.042h304.792zM448.833 62c8.912 0 16.042 7.13 16.042 16.042v304.792c0 8.912-7.13 16.042-16.042 16.042h-304.792c-8.912 0-16.042-7.13-16.042-16.042v-304.792c0-8.912 7.13-16.042 16.042-16.042h304.792zM881.958 62c8.912 0 16.042 7.13 16.042 16.042v304.792c0 8.912-7.13 16.042-16.042 16.042h-304.792c-8.912 0-16.042-7.13-16.042-16.042v-304.792c0-8.912 7.13-16.042 16.042-16.042h304.792z" />
<glyph unicode="&#xe91f;" glyph-name="afn-recipebox-list" d="M128 559.292c0-8.912 7.13-16.042 16.042-16.042h737.917c8.912 0 16.042 7.13 16.042 16.042v256.667c0 8.912-7.13 16.042-16.042 16.042h-737.917c-8.912 0-16.042-7.13-16.042-16.042v-256.667zM128 78.042c0-8.912 7.13-16.042 16.042-16.042h737.917c8.912 0 16.042 7.13 16.042 16.042v256.667c0 8.912-7.13 16.042-16.042 16.042h-737.917c-8.912 0-16.042-7.13-16.042-16.042v-256.667z" />
<glyph unicode="&#xe920;" glyph-name="afn-recipebox" d="M236.235 603.913h547.598c15.858 0 35.98 12.757 35.98 28.348v28.348c0 15.591-20.121 28.348-35.98 28.348h-288.208c-15.858 0-32.91 12.105-37.941 26.874l-10.572 31.268c-5.030 14.798-22.111 26.902-37.941 26.902h-172.936c-15.858 0-21.685-12.757-21.685-28.348v-113.391c0-15.591 5.826-28.348 21.685-28.348zM846.272 575.565h-667.673c-31.717 0-54.282-26.477-50.105-57.376l45.159-337.623c4.121-30.899 33.479-58.567 65.167-58.567h547.257c31.688 0 61.018 27.667 65.167 58.567l45.103 337.623c4.178 30.899-18.359 57.376-50.076 57.376z" />
<glyph unicode="&#xe921;" glyph-name="afn-record" d="M770 446c0 141.63-114.37 256-256 256s-256-114.37-256-256c0-141.63 114.37-256 256-256s256 114.37 256 256v0z" />
<glyph unicode="&#xe922;" glyph-name="afn-right" d="M538.794 821.433c-4.598 4.598-11.956 5.518-18.393 3.679-6.438-2.759-10.116-9.197-10.116-15.634v-215.2h-380.739c-9.197 0-16.554-7.357-16.554-16.554v-264.862c0-9.197 7.357-16.554 16.554-16.554h380.739v-215.2c0-6.438 3.679-12.875 10.116-15.634 6.438-1.839 13.795-0.92 18.393 3.679l364.185 364.185c2.759 3.679 4.598 7.357 4.598 11.956s-1.839 8.277-4.598 11.956l-364.185 364.185z" />
<glyph unicode="&#xe923;" glyph-name="afn-rows" d="M898 527.208c0 8.912-7.13 16.042-16.042 16.042h-737.917c-8.912 0-16.042-7.13-16.042-16.042v-160.417c0-8.912 7.13-16.042 16.042-16.042h737.917c8.912 0 16.042 7.13 16.042 16.042v160.417zM898 815.958c0 8.912-7.13 16.042-16.042 16.042h-737.917c-8.912 0-16.042-7.13-16.042-16.042v-160.417c0-8.912 7.13-16.042 16.042-16.042h737.917c8.912 0 16.042 7.13 16.042 16.042v160.417zM898 238.458c0 8.912-7.13 16.042-16.042 16.042h-737.917c-8.912 0-16.042-7.13-16.042-16.042v-160.417c0-8.912 7.13-16.042 16.042-16.042h737.917c8.912 0 16.042 7.13 16.042 16.042v160.417z" />
<glyph unicode="&#xe924;" glyph-name="afn-search" d="M609.25 832c-159.525 0-288.75-129.225-288.75-288.75 0-57.037 16.042-109.618 44.56-154.178l-218.345-217.454c-24.954-24.954-24.954-65.949 0-90.903 12.477-12.477 28.519-18.715 45.451-18.715 16.042 0 32.975 6.238 45.451 18.715l217.454 218.345c44.56-28.519 97.141-44.56 154.178-44.56 159.525 0 288.75 129.225 288.75 288.75s-129.225 288.75-288.75 288.75v0zM609.25 350.75c-106.053 0-192.5 86.447-192.5 192.5s86.447 192.5 192.5 192.5c106.053 0 192.5-86.447 192.5-192.5s-86.447-192.5-192.5-192.5v0z" />
<glyph unicode="&#xe925;" glyph-name="afn-share" d="M657.375 277.974v-37.431h-433.125v385h124.769c40.995 29.41 90.012 48.125 147.94 57.037v39.213h-272.708c-52.581 0-96.25-43.669-96.25-96.25v-385c0-52.581 43.669-96.25 96.25-96.25h433.125c52.581 0 96.25 43.669 96.25 96.25v103.38l-96.25-65.949zM890.87 542.661l-304.792 208.542c-4.456 3.565-11.586 3.565-16.042 0.891-5.347-2.674-8.912-8.021-8.912-14.259v-113.183c-90.903-2.674-161.308-30.301-208.542-81.1-70.405-73.97-64.167-172.002-64.167-175.567 0.891-7.13 5.347-13.368 12.477-15.15h3.565c5.347 0 10.694 2.674 13.368 8.021 0.891 0 47.234 68.623 243.299 73.079v-113.183c0-6.238 3.565-11.586 8.912-14.259 1.782-0.891 4.456-1.782 7.13-1.782 3.565 0 6.238 0.891 8.912 2.674l304.792 208.542c4.456 2.674 7.13 8.021 7.13 13.368s-2.674 9.803-7.13 13.368v0z" />
<glyph unicode="&#xe926;" glyph-name="afn-star" d="M893.513 515.623c4.456 4.456 5.347 11.586 3.565 17.824-2.674 6.238-8.912 9.803-15.15 9.803h-245.972l-107.836 278.056c-2.674 6.238-8.912 10.694-15.15 10.694s-12.477-4.456-15.15-10.694l-107.836-278.056h-245.972c-6.238 0-12.477-3.565-15.15-9.803-1.782-6.238-0.891-13.368 3.565-17.824l187.153-186.262-47.234-248.646c-0.891-6.238 1.782-12.477 7.13-16.042s12.477-3.565 17.824 0l215.671 139.028 215.671-139.028c2.674-1.782 6.238-2.674 8.912-2.674s6.238 0.891 8.912 2.674c5.347 3.565 8.021 9.803 7.13 16.042l-47.234 248.646 187.153 186.262z" />
<glyph unicode="&#xe927;" glyph-name="afn-trash" d="M646.4 217.6c0-21.12-8.64-38.4-19.2-38.4s-19.2 17.28-19.2 38.4v230.4c0 21.12 8.64 38.4 19.2 38.4s19.2-17.28 19.2-38.4v-230.4zM531.2 217.6c0-21.12-8.64-38.4-19.2-38.4s-19.2 17.28-19.2 38.4v230.4c0 21.12 8.64 38.4 19.2 38.4s19.2-17.28 19.2-38.4v-230.4zM416 217.6c0-21.12-8.64-38.4-19.2-38.4s-19.2 17.28-19.2 38.4v230.4c0 21.12 8.64 38.4 19.2 38.4s19.2-17.28 19.2-38.4v-230.4zM723.2 601.6h-422.4c-21.12 0-37.171-17.242-35.674-38.323l32.947-460.954c1.498-21.082 20.006-38.323 41.126-38.323h345.6c21.12 0 39.629 17.242 41.126 38.323l32.947 460.954c1.498 21.082-14.554 38.323-35.674 38.323v0zM608 755.2c0 0-42.97 76.8-96 76.8s-96-76.8-96-76.8h-192v-115.2h576v115.2h-192z" />
<glyph unicode="&#xe928;" glyph-name="afn-twitter" d="M896.437 689.866c-29.11-13.023-59.752-21.832-92.692-25.663 33.706 19.917 58.986 51.708 70.86 89.245-30.642-18.385-65.497-31.791-101.502-39.069-30.259 30.642-72.009 50.559-118.355 50.559-88.862 0-160.488-71.626-160.488-160.488 0-12.64 0.766-25.663 3.447-37.154-133.293 7.277-251.265 67.796-331.317 165.084-13.406-23.748-21.832-48.261-21.832-78.137 0-55.156 28.344-104.183 72.009-133.293-26.429 0.766-50.942 8.044-72.775 19.917v-1.915c0-78.137 55.539-143.252 129.080-157.807-13.789-3.83-28.344-5.745-42.899-5.745-9.959 0-19.917 1.149-29.876 3.064 19.917-63.582 80.052-111.077 149.763-111.844-54.39-43.665-124.483-76.222-199.556-76.222-13.023 0-25.663 0.766-38.303 2.681 70.86-45.58 156.275-65.497 247.052-65.497 295.696 0 457.333 245.137 457.333 457.716v21.066c31.025 22.599 58.22 50.559 80.052 83.5v0z" />
<glyph unicode="&#xe929;" glyph-name="afn-up" d="M145.739 472.484c-4.433-4.433-5.319-11.525-3.546-17.731 2.66-6.206 8.866-9.752 15.072-9.752h207.458v-367.042c0-8.866 7.093-15.958 15.958-15.958h255.333c8.866 0 15.958 7.093 15.958 15.958v367.042h207.458c6.206 0 12.412 3.546 15.072 9.752 1.773 6.206 0.887 13.299-3.546 17.731l-351.083 351.083c-3.546 2.66-7.093 4.433-11.525 4.433s-7.979-1.773-11.525-4.433l-351.083-351.083z" />
<glyph unicode="&#xe92a;" glyph-name="afn-upright" d="M136.525 294.9c-7.081-7.081-7.081-19.22 0-26.301l200.292-200.292c7.081-7.081 19.22-7.081 26.301 0l314.6 315.611 187.141-188.153c5.058-5.058 13.15-6.069 20.231-4.046 7.081 3.035 11.127 10.116 11.127 17.197v600.875c0 10.116-8.093 18.208-18.208 18.208h-600.875c-7.081 0-14.162-4.046-17.197-11.127-2.023-7.081-1.012-15.174 4.046-20.231l188.153-187.141-315.611-314.6z" />
<glyph unicode="&#xe92b;" glyph-name="afn-video" d="M896 672c0 6.222-3.556 12.444-9.778 15.111-6.222 1.778-13.333 0.889-17.778-3.556l-164.444-165.333v121.778c0 26.667-21.333 48-48 48h-480c-26.667 0-48-21.333-48-48v-384c0-26.667 21.333-48 48-48h480c26.667 0 48 21.333 48 48v121.778l164.444-165.333c3.556-2.667 7.111-4.444 11.556-4.444 1.778 0 4.444 0 6.222 0.889 6.222 2.667 9.778 8.889 9.778 15.111v448z" />
<glyph unicode="&#xe92c;" glyph-name="afn-view" d="M893.333 456.889l-1.778 2.667c0 0-163.556 244.444-379.556 244.444s-381.333-247.111-381.333-247.111c-3.556-5.333-3.556-12.444 0-17.778 0 0 165.333-247.111 381.333-247.111s381.333 247.111 381.333 247.111c3.556 5.333 3.556 12.444 0 17.778v0zM512 304c-80 0-144 64-144 144 0 79.111 64 144 144 144 79.111 0 144-64.889 144-144 0-80-64.889-144-144-144v0z" />
<glyph unicode="&#xe92d;" glyph-name="afn-write" d="M755.586 543.389l-396.7-396.7c-1.783-1.783-3.566-2.674-5.349-3.566l-201.47-80.232c-2.674-0.891-4.457-0.891-6.24-0.891-4.457 0-8.023 1.783-11.589 4.457-4.457 4.457-5.349 11.589-3.566 17.829l80.232 201.47c0.891 1.783 1.783 3.566 3.566 5.349l396.7 396.7 144.417-144.417zM885.74 742.185c18.721-19.612 18.721-49.922 0-68.643l-82.014-82.014-144.417 144.417 82.014 82.014c18.721 18.721 49.030 18.721 68.643 0l75.774-75.774z" />
<glyph unicode="&#xe92e;" glyph-name="afn-cta" d="M512 62c-212.077 0-384 171.923-384 384s171.923 384 384 384c212.077 0 384-171.923 384-384s-171.923-384-384-384zM461.583 700c-2.951 0-5.311-1.18-7.671-2.951l-74.353-74.353c-4.131-4.131-4.131-11.212 0-15.343l162.87-162.279-162.87-162.279c-4.131-4.131-4.131-11.212 0-15.343l74.353-74.353c4.131-4.131 11.212-4.131 15.343 0l244.304 244.304c4.131 4.131 4.131 11.212 0 15.343l-244.304 244.304c-2.36 1.77-4.721 2.951-7.671 2.951z" />
<glyph unicode="&#xe92f;" glyph-name="afn-directions" d="M524.876 52.238h-3.332c-7.774 2.222-11.664 7.22-11.664 14.996v344.886h-344.886c-7.776 0-12.774 3.888-14.996 11.664-1.11 8.332 1.666 13.884 8.33 16.662l689.772 329.892c6.11 2.776 11.94 1.944 17.494-2.498 4.442-5.554 5.276-11.384 2.5-17.494l-329.892-689.772c-2.778-5.554-7.22-8.332-13.328-8.332v0z" />
<glyph unicode="&#xe930;" glyph-name="afn-phone" d="M866 713.848c0-2.172-0.272-4.074-0.816-5.702-20.092-160.19-87.424-297.434-202-411.738s-251.686-181.5-411.332-201.592c-1.628-0.544-3.53-0.816-5.702-0.816-2.716 0-4.616 0.272-5.702 0.816-3.258 1.63-5.974 4.344-8.146 8.144l-69.234 174.308c-2.716 8.688-0.272 14.932 7.33 18.734l192.226 96.112c5.43 3.258 11.132 2.444 17.106-2.444l93.668-94.484c77.65 48.328 141.182 112.13 190.596 191.412l-93.668 93.668c-4.886 5.974-5.702 11.676-2.444 17.106l96.114 192.226c3.802 7.602 10.046 10.046 18.734 7.33l174.308-69.234c3.802-2.172 6.246-4.888 7.332-8.146 1.086-2.172 1.63-4.074 1.63-5.702v0z" />
<glyph unicode="&#xe931;" glyph-name="afn-website" d="M821.626 796c12.052 0 22.462-4.384 31.226-13.148s13.148-19.174 13.148-31.228v-488.126c0-12.052-4.384-22.462-13.148-31.226s-19.174-13.148-31.226-13.148h-221.876v-42.73l124.086-62.454c6.026-1.644 9.038-6.026 9.038-13.148 0-4.384-1.37-7.944-4.11-10.682s-6.3-4.11-10.682-4.11h-414.166c-7.67 0-12.6 3.836-14.792 11.504-1.096 7.67 1.642 13.148 8.218 16.434l124.906 62.454v42.73h-221.876c-12.052 0-22.462 4.384-31.228 13.148s-13.148 19.174-13.148 31.226v488.126c0 12.052 4.384 22.462 13.148 31.228s19.174 13.148 31.228 13.148h621.25zM777.25 307.874v399.376h-532.5v-399.376h532.5z" />
<glyph unicode="&#xe932;" glyph-name="afn-snapchat" d="M299.909 571.906l2.262-0.204c1.072-17.646 1.674-35.34 3.43-52.918 0.78-7.78-2.406-11.44-8.986-10.556-12.452 1.67-25.18 3.45-36.932 7.614-13.474 4.774-25.64 4.214-37.732-2.536-19.292-10.776-22.054-31.812-4.474-45 11.076-8.31 24.63-13.456 37.372-19.382 9.59-4.462 20.108-7.056 29.402-12 15.798-8.402 20.342-20.284 12.83-36.442-31.29-67.286-77.51-117.902-153.672-134.246-14.278-3.064-19.998-15.286-11.286-26.98 5.44-7.302 13.53-14.298 21.928-17.406 19.462-7.2 39.648-12.728 59.886-17.478 18.166-4.264 18.368-3.406 22.292-21.68 6.902-32.138 10.7-34.654 43.49-28.002 43.344 8.794 83.632 4.332 119.366-24.696 12.010-9.756 25.36-18.318 39.162-25.34 48.744-24.808 98.23-25.002 146.766 0.196 18.126 9.408 34.904 21.62 51.562 33.57 23.762 17.042 50.292 22.026 78.594 19.766 14.44-1.156 28.734-3.988 43.146-5.59 15.36-1.706 21.398 2.626 25.37 17.494 1.914 7.166 3.796 14.366 5.154 21.652 1.26 6.732 4.504 9.374 11.588 11.116 23.952 5.886 47.758 12.574 71.168 20.312 6.912 2.284 13.256 8.258 18.236 13.954 8.68 9.926 5.756 28.098-10.996 29.468-4.184 0.342-8.328 1.652-12.398 2.84-70.072 20.472-113.196 69.508-141.3 133.932-5.992 13.734-2.094 24.342 10.884 31.708 10.050 5.704 21.576 8.744 32.032 13.818 13.562 6.58 28.096 12.274 39.696 21.5 14.73 11.718 12.154 30.764-3.684 41.166-13.516 8.878-27.884 10.658-43.514 4.74-10.124-3.836-20.856-6.588-31.562-8.202-8.068-1.214-12.174 2.26-11.522 12.41 2.014 31.39 3.114 62.872 3.462 94.33 0.668 60.382-23.922 109.8-71.21 146.136-68.55 52.672-145.662 57.452-224.604 29.34-60.852-21.67-101.488-66.134-117.090-128.966-7.134-28.716-5.676-59.56-8.116-89.438z" />
<glyph unicode="&#xe933;" glyph-name="afn-instagram" d="M514 760.711c102.501 0 114.641-0.39 155.119-2.237 37.428-1.708 57.754-7.962 71.282-13.218 17.917-6.964 30.706-15.284 44.139-28.716s21.752-26.222 28.715-44.139c5.257-13.528 11.511-33.854 13.219-71.281 1.847-40.48 2.237-52.62 2.237-155.121s-0.39-114.641-2.237-155.119c-1.708-37.428-7.962-57.754-13.219-71.282-6.962-17.917-15.282-30.706-28.715-44.139s-26.222-21.752-44.139-28.715c-13.528-5.257-33.854-11.511-71.282-13.219-40.472-1.847-52.613-2.237-155.119-2.237s-114.647 0.39-155.119 2.237c-37.428 1.708-57.754 7.962-71.281 13.219-17.918 6.962-30.708 15.282-44.14 28.715s-21.752 26.222-28.715 44.139c-5.257 13.528-11.511 33.854-13.219 71.281-1.847 40.48-2.237 52.62-2.237 155.121s0.39 114.641 2.237 155.119c1.708 37.428 7.962 57.754 13.219 71.282 6.962 17.917 15.282 30.706 28.715 44.139s26.222 21.752 44.14 28.716c13.527 5.256 33.853 11.509 71.279 13.218 40.48 1.847 52.62 2.237 155.121 2.237zM514 829.88c-104.256 0-117.327-0.442-158.272-2.31-40.861-1.865-68.765-8.354-93.184-17.844-25.243-9.81-46.651-22.936-67.992-44.277s-34.467-42.749-44.277-67.992c-9.49-24.419-15.979-52.323-17.844-93.184-1.868-40.943-2.309-54.016-2.309-158.272s0.44-117.329 2.309-158.272c1.865-40.861 8.354-68.765 17.844-93.184 9.81-25.242 22.936-46.651 44.277-67.992s42.749-34.467 67.992-44.277c24.419-9.49 52.323-15.979 93.184-17.844 40.945-1.868 54.016-2.309 158.272-2.309s117.329 0.44 158.272 2.309c40.861 1.865 68.765 8.354 93.184 17.844 25.243 9.81 46.651 22.936 67.992 44.277s34.467 42.749 44.277 67.992c9.49 24.419 15.979 52.323 17.844 93.184 1.868 40.943 2.31 54.016 2.31 158.272s-0.442 117.329-2.31 158.272c-1.865 40.861-8.354 68.765-17.844 93.184-9.81 25.243-22.936 46.651-44.277 67.992s-42.749 34.467-67.992 44.277c-24.419 9.49-52.323 15.979-93.184 17.844-40.943 1.868-54.016 2.31-158.272 2.31zM514 643.128c-108.87 0-197.128-88.258-197.128-197.128s88.258-197.128 197.128-197.128c108.87 0 197.128 88.258 197.128 197.128s-88.258 197.128-197.128 197.128v0zM514 318.040c-70.67 0-127.96 57.291-127.96 127.96s57.291 127.96 127.96 127.96c70.67 0 127.96-57.291 127.96-127.96s-57.291-127.96-127.96-127.96v0zM764.981 650.916c0-25.442-20.623-46.066-46.065-46.066s-46.066 20.625-46.066 46.066c0 25.442 20.625 46.065 46.066 46.065s46.065-20.623 46.065-46.065z" />
<glyph unicode="&#xe934;" glyph-name="afn-youtube" d="M512.676 720c-384.676 0-384.676 0-384.676-272.354s0-272.354 384.676-272.354 384.676 0 384.676 272.354 0 272.354-384.676 272.354zM524.039 367.912c-35.844-21.506-107.532-64.519-107.532-64.519v288.507l240.423-144.254c0 0-88.594-53.156-132.891-79.735z" />
</font>
</defs>
</svg>
